<?xml version="1.0" encoding="UTF-8"?>
<svg width="30px" height="30px" viewBox="0 0 30 30" version="1.1" xmlns="http://www.w3.org/2000/svg" xmlns:xlink="http://www.w3.org/1999/xlink">
    <!-- Generator: Sketch 61.2 (89653) - https://sketch.com -->
    <title>circle-arrow</title>
    <desc>Created with Sketch.</desc>
    <g id="Page-1" stroke="none" stroke-width="1" fill="none" fill-rule="evenodd">
        <g id="r" transform="translate(-77.000000, -162.000000)" fill="#000000" fill-rule="nonzero">
            <path d="M92,162 C100.284271,162 107,168.715729 107,177 C107,185.284271 100.284271,192 92,192 C83.7157288,192 77,185.284271 77,177 C77,168.715729 83.7157288,162 92,162 Z M92,163.5 C84.5441559,163.5 78.5,169.544156 78.5,177 C78.5,184.455844 84.5441559,190.5 92,190.5 C99.4558441,190.5 105.5,184.455844 105.5,177 C105.5,169.544156 99.4558441,163.5 92,163.5 Z M89.165,176.999796 L94.7324,181.676 C95.0207636,181.917818 95.0809455,182.330711 94.8893542,182.64195 L94.8243,182.732 C94.5821182,183.021091 94.1691099,183.081256 93.857702,182.889205 L93.7676,182.824 L87.5176,177.574 L87.4388889,177.497593 C87.3180556,177.361667 87.25,177.185 87.25,177 C87.25,176.778 87.348,176.568 87.5176,176.426 L87.5176,176.426 L93.7676,171.176 L93.857702,171.110795 C94.1691099,170.918744 94.5821182,170.978909 94.8243,171.268 C95.0907,171.585 95.0496,172.058 94.7324,172.324 L94.7324,172.324 L89.165,176.999796 Z" id="circle-arrow"></path>
        </g>
    </g>
</svg>