<?xml version="1.0" encoding="UTF-8"?>
<svg width="18px" height="16px" viewBox="0 0 18 16" version="1.1" xmlns="http://www.w3.org/2000/svg" xmlns:xlink="http://www.w3.org/1999/xlink">
    <!-- Generator: Sketch 61.2 (89653) - https://sketch.com -->
    <title>cc-heart</title>
    <desc>Created with Sketch.</desc>
    <g id="Page-1" stroke="none" stroke-width="1" fill="none" fill-rule="evenodd">
        <g id="r" transform="translate(-168.000000, -112.000000)" fill="#000000">
            <path d="M181.053,113.3581 C179.504,113.1372 178.167,113.7074 177.022,114.9614 L177.022,114.9614 C177.021,114.9622 177.017,114.9667 177.013,114.9715 C177.007,114.9782 177,114.9856 177,114.9856 C177,114.9856 176.9801,114.9638 176.978,114.9615 C175.8331,113.7075 174.4959,113.1372 172.9475,113.3581 C171.3494,113.5861 169.9887,114.7416 169.505,116.299 C169.1327,117.4974 169.2873,118.8396 169.7857,120.0635 C170.561,121.9671 172.8519,124.673 177,126.5647 C181.148,124.673 183.439,121.9671 184.214,120.0635 C184.713,118.8396 184.867,117.4974 184.495,116.299 C184.011,114.7416 182.651,113.5861 181.053,113.3581 Z M168.7778,114.6993 C170.58,111.716 174.4994,111.198 177,113.183 C179.501,111.198 183.42,111.716 185.222,114.6993 C185.821,115.6898 186.045,116.8415 185.993,117.9849 C185.901,119.9681 185.055,121.7018 183.811,123.1978 C182.137,125.2119 179.703,126.795 177.053,127.9763 C177.051,127.9772 177.048,127.9787 177.044,127.9805 C177.032,127.9861 177.012,127.9948 177,128 C176.9852,127.9934 176.9626,127.9834 176.9523,127.9788 L176.9471,127.9765 C174.2834,126.7952 171.863,125.2122 170.1889,123.1978 C168.9455,121.7017 168.0991,119.9681 168.0075,117.9849 C167.9546,116.8415 168.1794,115.6898 168.7778,114.6993 Z M175.7891,119.5312 L176.9275,120.1019 C176.717,120.601 176.1916,121.0639 175.7187,121.3037 C175.1077,121.6135 174.3892,121.6475 173.7293,121.5015 C172.376,121.2023 171.746,120.0557 171.7225,118.7283 C171.6995,117.4298 172.355,116.2257 173.6492,115.8754 C174.8655,115.5461 176.3003,115.9479 176.9126,117.1293 L175.6696,117.7737 C175.5271,117.4383 175.2605,117.0651 174.6349,117.0324 C173.6558,116.9812 173.3692,117.9387 173.4031,118.7678 C173.4279,119.3747 173.6212,120.0983 174.2739,120.2792 C175.1055,120.5097 175.3934,120.1148 175.7891,119.5312 Z M181.156,119.5312 L182.294,120.1019 C182.083,120.601 181.558,121.0639 181.085,121.3037 C180.474,121.6135 179.756,121.6475 179.096,121.5015 C177.742,121.2023 177.112,120.0557 177.089,118.7283 C177.066,117.4298 177.721,116.2257 179.016,115.8754 C180.232,115.5461 181.667,115.9479 182.279,117.1293 L181.036,117.7737 C180.894,117.4383 180.627,117.0651 180.001,117.0324 C179.022,116.9812 178.736,117.9387 178.77,118.7678 C178.794,119.3747 178.988,120.0983 179.64,120.2792 C180.472,120.5097 180.76,120.1148 181.156,119.5312 Z" id="cc-heart"></path>
        </g>
    </g>
</svg>