<?xml version="1.0" encoding="UTF-8"?>
<svg width="8px" height="12px" viewBox="0 0 8 12" version="1.1" xmlns="http://www.w3.org/2000/svg" xmlns:xlink="http://www.w3.org/1999/xlink">
    <!-- Generator: Sketch 61.2 (89653) - https://sketch.com -->
    <title>chevron-right</title>
    <desc>Created with Sketch.</desc>
    <g id="Page-1" stroke="none" stroke-width="1" fill="none" fill-rule="evenodd">
        <g id="r" transform="translate(-166.000000, -63.000000)" fill="#000000" fill-rule="nonzero">
            <path d="M166.5176,64.32428 C166.2004,64.05786 166.1593,63.58477 166.4257,63.26761 C166.6921,62.95044 167.1652,62.9093 167.4824,63.17572 L166.5176,64.32428 Z M173.25,69 L173.7324,68.42572 C173.902,68.56822 174,68.77844 174,69 C174,69.22156 173.902,69.43178 173.7324,69.57428 L173.25,69 Z M167.4824,74.8243 C167.1652,75.0907 166.6921,75.0496 166.4257,74.7324 C166.1593,74.4152 166.2004,73.9421 166.5176,73.6757 L167.4824,74.8243 Z M167.4824,63.17572 L173.7324,68.42572 L172.7676,69.57428 L166.5176,64.32428 L167.4824,63.17572 Z M173.7324,69.57428 L167.4824,74.8243 L166.5176,73.6757 L172.7676,68.42572 L173.7324,69.57428 Z" id="chevron-right"></path>
        </g>
    </g>
</svg>