<?xml version="1.0" encoding="UTF-8"?>
<svg width="8px" height="12px" viewBox="0 0 8 12" version="1.1" xmlns="http://www.w3.org/2000/svg" xmlns:xlink="http://www.w3.org/1999/xlink">
    <!-- Generator: Sketch 61.2 (89653) - https://sketch.com -->
    <title>chevron-left</title>
    <desc>Created with Sketch.</desc>
    <g id="Page-1" stroke="none" stroke-width="1" fill="none" fill-rule="evenodd">
        <g id="r" transform="translate(-137.000000, -63.000000)" fill="#000000" fill-rule="nonzero">
            <path d="M144.7324,64.32428 C145.0496,64.05786 145.0907,63.58477 144.8243,63.26761 C144.5579,62.95044 144.0848,62.9093 143.7676,63.17572 L144.7324,64.32428 Z M138,69 L137.5176,68.42572 C137.348,68.56822 137.25,68.77844 137.25,69 C137.25,69.22156 137.348,69.43178 137.5176,69.57428 L138,69 Z M143.7676,74.8243 C144.0848,75.0907 144.5579,75.0496 144.8243,74.7324 C145.0907,74.4152 145.0496,73.9421 144.7324,73.6757 L143.7676,74.8243 Z M143.7676,63.17572 L137.5176,68.42572 L138.4824,69.57428 L144.7324,64.32428 L143.7676,63.17572 Z M137.5176,69.57428 L143.7676,74.8243 L144.7324,73.6757 L138.4824,68.42572 L137.5176,69.57428 Z" id="chevron-left"></path>
        </g>
    </g>
</svg>