<?xml version="1.0" encoding="UTF-8"?>
<svg width="20px" height="20px" viewBox="0 0 20 20" version="1.1" xmlns="http://www.w3.org/2000/svg" xmlns:xlink="http://www.w3.org/1999/xlink">
    <!-- Generator: Sketch 61.2 (89653) - https://sketch.com -->
    <title>close</title>
    <desc>Created with Sketch.</desc>
    <g id="Page-1" stroke="none" stroke-width="1" fill="none" fill-rule="evenodd">
        <g id="r" transform="translate(-122.000000, -167.000000)" fill="#000000">
            <path d="M140.6607,168.339 C140.0749,167.754 139.1251,167.754 138.5393,168.339 L132,174.879 L125.4607,168.339 C124.8749,167.754 123.9251,167.754 123.3393,168.339 C122.7902,168.889 122.7558,169.758 123.2364,170.347 L123.3393,170.461 L129.8787,177 L123.3393,183.539 L123.2364,183.653 C122.7558,184.242 122.7902,185.111 123.3393,185.661 C123.9251,186.246 124.8749,186.246 125.4607,185.661 L132,179.121 L138.5393,185.661 C139.1251,186.246 140.0749,186.246 140.6607,185.661 C141.2098,185.111 141.2442,184.242 140.7636,183.653 L140.6607,183.539 L134.1213,177 L140.6607,170.461 L140.7636,170.347 C141.2442,169.758 141.2098,168.889 140.6607,168.339 Z" id="close"></path>
        </g>
    </g>
</svg>