<?xml version="1.0" encoding="UTF-8"?>
<svg width="30px" height="30px" viewBox="0 0 30 30" version="1.1" xmlns="http://www.w3.org/2000/svg" xmlns:xlink="http://www.w3.org/1999/xlink">
    <!-- Generator: Sketch 61.2 (89653) - https://sketch.com -->
    <title>facebook</title>
    <desc>Created with Sketch.</desc>
    <g id="Page-1" stroke="none" stroke-width="1" fill="none" fill-rule="evenodd">
        <g id="r" transform="translate(-197.000000, -162.000000)" fill="#000000">
            <path d="M227.004,177.092 C227.004,168.757 220.288,162 212.004,162 C203.719,162 197.004,168.757 197.004,177.092 C197.004,184.624 202.489,190.868 209.66,192 L209.66,181.454 L205.851,181.454 L205.851,177.092 L209.66,177.092 L209.66,173.767 C209.66,169.984 211.899,167.895 215.326,167.895 C216.967,167.895 218.683,168.19 218.683,168.19 L218.683,171.904 L216.792,171.904 C214.928,171.904 214.347,173.067 214.347,174.261 L214.347,177.092 L218.507,177.092 L217.842,181.454 L214.347,181.454 L214.347,192 C221.518,190.868 227.004,184.624 227.004,177.092 Z" id="facebook"></path>
        </g>
    </g>
</svg>