<?xml version="1.0" encoding="UTF-8"?>
<svg width="30px" height="26px" viewBox="0 0 30 26" version="1.1" xmlns="http://www.w3.org/2000/svg" xmlns:xlink="http://www.w3.org/1999/xlink">
    <!-- Generator: Sketch 61.2 (89653) - https://sketch.com -->
    <title>filter</title>
    <desc>Created with Sketch.</desc>
    <g id="Page-1" stroke="none" stroke-width="1" fill="none" fill-rule="evenodd">
        <g id="r" transform="translate(-157.000000, -164.000000)" fill="#000000">
            <path d="M162.251,166.799 C162.7627,165.177 164.2836,164 166.0803,164 C167.8768,164 169.3976,165.176 169.9095,166.799 L185.846,166.8 C186.483,166.8 187,167.315 187,167.95 C187,168.585 186.483,169.1 185.846,169.1 L169.9399,169.1 C169.4604,170.774 167.9139,172 166.0803,172 C164.2466,172 162.7001,170.774 162.2206,169.1 L158.1538,169.1 C157.5166,169.1 157,168.585 157,167.95 C157,167.315 157.5166,166.8 158.1538,166.8 L162.251,166.799 Z M164.4163,166.882 C164.1999,167.201 164.0736,167.586 164.0736,168 C164.0736,168.406 164.1952,168.785 164.4042,169.1 C164.7632,169.642 165.3798,170 166.0803,170 C166.7807,170 167.3973,169.642 167.7563,169.1 C167.7701,169.079 167.7834,169.058 167.7964,169.037 C167.9808,168.735 168.087,168.38 168.087,168 C168.087,167.549 167.9372,167.133 167.6845,166.798 C167.3183,166.314 166.736,166 166.0803,166 C165.3876,166 164.7769,166.35 164.4163,166.882 Z M176.1137,177 C176.1137,176.549 176.2635,176.133 176.5161,175.798 C176.8823,175.314 177.465,175 178.12,175 C178.776,175 179.358,175.314 179.725,175.798 C179.977,176.133 180.127,176.549 180.127,177 C180.127,177.406 180.005,177.785 179.796,178.1 C179.437,178.642 178.821,179 178.12,179 C177.42,179 176.8033,178.642 176.4444,178.1 C176.2354,177.785 176.1137,177.406 176.1137,177 Z M158.1538,178.1 L174.2607,178.1 C174.7403,179.774 176.2867,181 178.12,181 C179.954,181 181.501,179.774 181.98,178.1 L185.846,178.1 C186.483,178.1 187,177.585 187,176.95 C187,176.315 186.483,175.8 185.846,175.8 L181.95,175.799 C181.438,174.177 179.917,173 178.12,173 C176.3239,173 174.8031,174.176 174.2912,175.799 L158.1538,175.8 C157.5166,175.8 157,176.315 157,176.95 C157,177.585 157.5166,178.1 158.1538,178.1 Z M167.486,184.798 C167.2334,185.133 167.0836,185.549 167.0836,186 C167.0836,186.406 167.2053,186.785 167.4143,187.1 C167.7732,187.642 168.3899,188 169.0903,188 C169.7907,188 170.4074,187.642 170.7663,187.1 C170.9753,186.785 171.097,186.406 171.097,186 C171.097,185.549 170.9472,185.133 170.6946,184.798 C170.3284,184.314 169.7461,184 169.0903,184 C168.4345,184 167.8522,184.314 167.486,184.798 Z M165.2306,187.1 L158.1538,187.1 C157.5166,187.1 157,186.585 157,185.95 C157,185.315 157.5166,184.8 158.1538,184.8 L165.2611,184.799 C165.7729,183.177 167.2937,182 169.0903,182 C170.8868,182 172.4077,183.176 172.9195,184.799 L185.846,184.8 C186.483,184.8 187,185.315 187,185.95 C187,186.585 186.483,187.1 185.846,187.1 L172.95,187.1 C172.4704,188.774 170.924,190 169.0903,190 C167.2566,190 165.7101,188.774 165.2306,187.1 Z" id="filter"></path>
        </g>
    </g>
</svg>