<?xml version="1.0" encoding="UTF-8"?>
<svg width="18px" height="18px" viewBox="0 0 18 18" version="1.1" xmlns="http://www.w3.org/2000/svg" xmlns:xlink="http://www.w3.org/1999/xlink">
    <!-- Generator: Sketch 61.2 (89653) - https://sketch.com -->
    <title>info</title>
    <desc>Created with Sketch.</desc>
    <g id="Page-1" stroke="none" stroke-width="1" fill="none" fill-rule="evenodd">
        <g id="r" transform="translate(-108.000000, -111.000000)" fill="#000000">
            <path d="M117,127 C120.866,127 124,123.866 124,120 C124,116.134 120.866,113 117,113 C113.134,113 110,116.134 110,120 C110,123.866 113.134,127 117,127 Z M117,129 C121.9706,129 126,124.9706 126,120 C126,115.0294 121.9706,111 117,111 C112.0294,111 108,115.0294 108,120 C108,124.9706 112.0294,129 117,129 Z M117,117.5 C117.6904,117.5 118.25,116.9404 118.25,116.25 C118.25,115.5596 117.6904,115 117,115 C116.3096,115 115.75,115.5596 115.75,116.25 C115.75,116.9404 116.3096,117.5 117,117.5 Z M118,125.5 L118,119 L116,119 L116,125.5 L118,125.5 Z" id="info"></path>
        </g>
    </g>
</svg>