<?xml version="1.0" encoding="UTF-8"?>
<svg width="30px" height="30px" viewBox="0 0 30 30" version="1.1" xmlns="http://www.w3.org/2000/svg" xmlns:xlink="http://www.w3.org/1999/xlink">
    <!-- Generator: Sketch 61.2 (89653) - https://sketch.com -->
    <title>instagram</title>
    <desc>Created with Sketch.</desc>
    <g id="Page-1" stroke="none" stroke-width="1" fill="none" fill-rule="evenodd">
        <g id="r" transform="translate(-277.000000, -162.000000)" fill="#000000">
            <path d="M293.299513,162.000769 C296.211308,162.004775 296.775235,162.025588 298.187,162.09 C299.784,162.163 300.874,162.417 301.829,162.788 C302.815,163.171 303.652,163.684 304.486,164.518 C305.32,165.352 305.833,166.189 306.216,167.175 C306.587,168.129 306.84,169.22 306.913,170.817 C306.977412,172.228765 306.999003,172.792692 307.003192,175.704487 L307.003192,178.299513 C306.999003,181.211308 306.977412,181.775235 306.913,183.187 C306.84,184.784 306.587,185.874 306.216,186.829 C305.833,187.815 305.32,188.652 304.486,189.486 C303.652,190.32 302.815,190.833 301.829,191.216 C300.874,191.587 299.784,191.84 298.187,191.913 C296.775235,191.977412 296.211308,191.999003 293.299513,192.003192 L290.704487,192.003192 C287.792692,191.999003 287.228765,191.977412 285.817,191.913 C284.22,191.84 283.129,191.587 282.175,191.216 C281.189,190.833 280.352,190.32 279.518,189.486 C278.684,188.652 278.171,187.815 277.788,186.829 C277.417,185.874 277.163,184.784 277.09,183.187 C277.025588,181.775235 277.004775,181.211308 277.000769,178.299513 L277.000769,175.704487 C277.004775,172.792692 277.025588,172.228765 277.09,170.817 C277.163,169.22 277.417,168.129 277.788,167.175 C278.171,166.189 278.684,165.352 279.518,164.518 C280.352,163.684 281.189,163.171 282.175,162.788 C283.129,162.417 284.22,162.163 285.817,162.09 C287.228765,162.025588 287.792692,162.004775 290.704487,162.000769 Z M292.692316,164.703175 L291.311524,164.703175 C287.934476,164.705028 287.426121,164.722364 285.94,164.79 C284.477,164.857 283.683,165.102 283.154,165.307 C282.454,165.579 281.954,165.904 281.429,166.429 C280.904,166.954 280.579,167.454 280.307,168.154 C280.102,168.683 279.857,169.477 279.79,170.94 C279.722364,172.426121 279.705028,172.934476 279.703175,176.311524 L279.703175,177.692316 C279.705028,181.068642 279.722364,181.577879 279.79,183.064 C279.857,184.526 280.102,185.321 280.307,185.849 C280.579,186.55 280.904,187.049 281.429,187.574 C281.954,188.099 282.454,188.424 283.154,188.697 C283.683,188.902 284.477,189.146 285.94,189.213 C287.329364,189.276273 287.864599,189.296298 290.692651,189.300224 L293.31131,189.300224 C296.139188,189.296298 296.673758,189.276273 298.064,189.213 C299.526,189.146 300.321,188.902 300.849,188.697 C301.55,188.424 302.049,188.099 302.574,187.574 C303.099,187.049 303.424,186.55 303.697,185.849 C303.902,185.321 304.146,184.526 304.213,183.064 C304.276273,181.673758 304.296298,181.138416 304.300224,178.311029 L304.300224,175.69269 C304.296298,172.864812 304.276273,172.330242 304.213,170.94 C304.146,169.477 303.902,168.683 303.697,168.154 C303.424,167.454 303.099,166.954 302.574,166.429 C302.049,165.904 301.55,165.579 300.849,165.307 C300.321,165.102 299.526,164.857 298.064,164.79 C296.577879,164.722364 296.068642,164.705028 292.692316,164.703175 Z M292.002,169.298 C296.256,169.298 299.705,172.747 299.705,177.002 C299.705,181.256 296.256,184.705 292.002,184.705 C287.747,184.705 284.298,181.256 284.298,177.002 C284.298,172.747 287.747,169.298 292.002,169.298 Z M292.002,172.001 C289.24,172.001 287.001,174.24 287.001,177.002 C287.001,179.764 289.24,182.002 292.002,182.002 C294.764,182.002 297.002,179.764 297.002,177.002 C297.002,174.24 294.764,172.001 292.002,172.001 Z M300.01,167.193 C301.004,167.193 301.81,168 301.81,168.994 C301.81,169.988 301.004,170.794 300.01,170.794 C299.016,170.794 298.21,169.988 298.21,168.994 C298.21,168 299.016,167.193 300.01,167.193 Z" id="instagram"></path>
        </g>
    </g>
</svg>