<?xml version="1.0" encoding="UTF-8"?>
<svg width="18px" height="18px" viewBox="0 0 18 18" version="1.1" xmlns="http://www.w3.org/2000/svg" xmlns:xlink="http://www.w3.org/1999/xlink">
    <!-- Generator: Sketch 61.2 (89653) - https://sketch.com -->
    <title>world</title>
    <desc>Created with Sketch.</desc>
    <g id="Page-1" stroke="none" stroke-width="1" fill="none" fill-rule="evenodd">
        <g id="r" transform="translate(-198.000000, -111.000000)" fill="#000000" fill-rule="nonzero">
            <path d="M207,111 C211.970563,111 216,115.029437 216,120 C216,124.970563 211.970563,129 207,129 C202.029437,129 198,124.970563 198,120 C198,115.029437 202.029437,111 207,111 Z M203.50001,122.459759 L199.912823,122.460197 C200.759568,124.899773 202.830405,126.767006 205.390275,127.32684 C205.174208,126.959958 204.962145,126.566135 204.759107,126.147263 C204.18691,124.966808 203.752944,123.732136 203.50001,122.459759 Z M214.087177,122.460197 L210.54999,122.459759 C210.297056,123.732136 209.86309,124.966808 209.290893,126.147263 C209.090111,126.561481 208.880503,126.951204 208.667218,127.314367 C211.200279,126.739247 213.246718,124.88166 214.087177,122.460197 Z M209.01634,122.459717 L205.03366,122.459717 C205.266769,123.499042 205.634795,124.514912 206.108893,125.492987 C206.401163,126.095947 206.713636,126.641223 207.025606,127.118973 L207.002036,127.153099 C207.321422,126.667244 207.641854,126.110352 207.941107,125.492987 C208.415205,124.514912 208.783231,123.499042 209.01634,122.459717 Z M203.308181,118.712985 L199.609915,118.713495 C199.537657,119.131497 199.5,119.561351 199.5,120 C199.5,120.325219 199.5207,120.645603 199.560854,120.959907 L203.289645,120.960076 C203.262133,120.622071 203.248,120.281949 203.248,119.94 C203.248,119.528176 203.268499,119.119001 203.308181,118.712985 Z M209.23348,118.713468 L204.81652,118.713468 C204.771388,119.119983 204.748,119.5291 204.748,119.94 C204.748,120.281239 204.76413,120.621248 204.795449,120.959558 L209.254551,120.959558 C209.28587,120.621248 209.302,120.281239 209.302,119.94 C209.302,119.5291 209.278612,119.119983 209.23348,118.713468 Z M214.390085,118.713495 L210.741819,118.712985 C210.781501,119.119001 210.802,119.528176 210.802,119.94 C210.802,120.281949 210.787867,120.622071 210.760355,120.960076 L214.439146,120.959907 C214.4793,120.645603 214.5,120.325219 214.5,120 C214.5,119.561351 214.462343,119.131497 214.390085,118.713495 Z M205.310842,112.689385 L205.118586,112.737937 C202.798084,113.337394 200.913039,115.019718 200.034602,117.213757 L203.542855,117.213086 C203.800532,116.013795 204.218013,114.849025 204.759107,113.732737 C204.937269,113.365185 205.122379,113.016921 205.310842,112.689385 Z M207.024394,112.761027 L207.047964,112.726901 C206.728578,113.212756 206.408146,113.769648 206.108893,114.387013 C205.666351,115.299988 205.31623,116.245894 205.081991,117.213068 L208.968009,117.213068 C208.73377,116.245894 208.383649,115.299988 207.941107,114.387013 C207.648837,113.784053 207.336364,113.238777 207.024394,112.761027 Z M208.746851,112.704508 L208.886172,112.950413 C209.023904,113.200277 209.159294,113.461246 209.290893,113.732737 C209.831987,114.849025 210.249468,116.013795 210.507145,117.213086 L213.965398,117.213757 C213.070042,114.977459 211.128929,113.27278 208.746851,112.704508 Z" id="world"></path>
        </g>
    </g>
</svg>