<?xml version="1.0" encoding="UTF-8"?>
<svg width="18px" height="18px" viewBox="0 0 18 18" version="1.1" xmlns="http://www.w3.org/2000/svg" xmlns:xlink="http://www.w3.org/1999/xlink">
    <!-- Generator: Sketch 61.2 (89653) - https://sketch.com -->
    <title>search</title>
    <desc>Created with Sketch.</desc>
    <g id="Page-1" stroke="none" stroke-width="1" fill="none" fill-rule="evenodd">
        <g id="r" transform="translate(-78.000000, -111.000000)" fill="#000000">
            <path d="M78,118.4589 C78,114.3523 81.35973,111 85.46592,111 C89.5645,111 92.924,114.3525 92.9243,118.4591 C92.9243,120.0381 92.4266,121.5002 91.5789,122.7134 L95.6149,126.7502 C96.1284,127.2637 96.1284,128.0957 95.6149,128.609 C95.1015,129.1303 94.2618,129.1303 93.7483,128.609 L89.7121,124.58 C88.5068,125.4202 87.0447,125.9257 85.46592,125.9257 C81.35973,125.9257 78,122.5656 78,118.4589 Z M90.371,118.4355 C90.371,115.6937 88.1757,113.5 85.43937,113.5 C82.69504,113.5 80.49979,115.6937 80.5,118.4355 C80.5,121.1772 82.69525,123.371 85.43937,123.371 C88.1757,123.371 90.371,121.1772 90.371,118.4355 Z" id="search"></path>
        </g>
    </g>
</svg>