<svg width="20" height="20" viewBox="0 0 20 20" fill="none" xmlns="http://www.w3.org/2000/svg">
<g id="Medium/Share">
<path id="Vector 6" d="M7.5 5.75C7.91421 5.75 8.25 5.41421 8.25 5C8.25 4.58579 7.91421 4.25 7.5 4.25V5.75ZM16.75 12.5C16.75 12.0858 16.4142 11.75 16 11.75C15.5858 11.75 15.25 12.0858 15.25 12.5H16.75ZM7.5 4.25H4V5.75H7.5V4.25ZM2.25 6V16H3.75V6H2.25ZM4 17.75H15V16.25H4V17.75ZM16.75 16V12.5H15.25V16H16.75ZM15 17.75C15.9665 17.75 16.75 16.9665 16.75 16H15.25C15.25 16.1381 15.1381 16.25 15 16.25V17.75ZM2.25 16C2.25 16.9665 3.0335 17.75 4 17.75V16.25C3.86193 16.25 3.75 16.1381 3.75 16H2.25ZM4 4.25C3.0335 4.25 2.25 5.0335 2.25 6H3.75C3.75 5.86193 3.86193 5.75 4 5.75V4.25Z" fill="black"/>
<path id="Vector 5" d="M8.46965 10.4424C8.17676 10.7353 8.17676 11.2102 8.46965 11.5031C8.76255 11.796 9.23742 11.796 9.53031 11.5031L8.46965 10.4424ZM16.9727 3H17.7227V2.25H16.9727V3ZM16.2227 9C16.2227 9.41421 16.5585 9.75 16.9727 9.75C17.3869 9.75 17.7227 9.41421 17.7227 9H16.2227ZM11 2.25C10.5858 2.25 10.25 2.58579 10.25 3C10.25 3.41421 10.5858 3.75 11 3.75V2.25ZM9.53031 11.5031L17.5031 3.53033L16.4424 2.46967L8.46965 10.4424L9.53031 11.5031ZM16.2227 3V9H17.7227V3H16.2227ZM16.9727 2.25H11V3.75H16.9727V2.25Z" fill="black"/>
</g>
</svg>
