<?xml version="1.0" encoding="UTF-8"?>
<svg width="30px" height="30px" viewBox="0 0 30 30" version="1.1" xmlns="http://www.w3.org/2000/svg" xmlns:xlink="http://www.w3.org/1999/xlink">
    <!-- Generator: Sketch 61.2 (89653) - https://sketch.com -->
    <title>twitter</title>
    <desc>Created with Sketch.</desc>
    <g id="Page-1" stroke="none" stroke-width="1" fill="none" fill-rule="evenodd">
        <g id="r" transform="translate(-237.000000, -162.000000)" fill="#000000">
            <path d="M252,192 C243.716,192 237,185.284 237,177 C237,168.716 243.716,162 252,162 C260.284,162 267,168.716 267,177 C267,185.284 260.284,192 252,192 Z M259.462,173.677 C259.462,178.755 255.592,184.62 248.52,184.62 C246.352,184.62 244.327,183.982 242.632,182.902 C242.932,182.94 243.24,182.955 243.547,182.955 C245.347,182.955 247.005,182.34 248.325,181.305 C246.645,181.275 245.22,180.165 244.732,178.635 C244.965,178.68 245.205,178.702 245.452,178.702 C245.805,178.702 246.142,178.657 246.465,178.567 C244.71,178.215 243.382,176.655 243.382,174.795 L243.382,174.742 C243.9,175.027 244.492,175.2 245.122,175.222 C244.095,174.532 243.412,173.355 243.412,172.02 C243.412,171.315 243.6,170.655 243.93,170.085 C245.827,172.41 248.662,173.947 251.857,174.105 C251.797,173.82 251.76,173.527 251.76,173.227 C251.76,171.105 253.485,169.38 255.607,169.38 C256.71,169.38 257.707,169.845 258.412,170.595 C259.29,170.422 260.115,170.107 260.857,169.665 C260.565,170.565 259.957,171.322 259.162,171.795 C259.942,171.697 260.685,171.495 261.375,171.187 C260.857,171.96 260.205,172.642 259.455,173.182 C259.462,173.347 259.462,173.512 259.462,173.677 Z" id="twitter"></path>
        </g>
    </g>
</svg>